<svg xmlns="http://www.w3.org/2000/svg" width="200" height="80" viewBox="0 0 200 80">
  <style>
    .vk-blue {fill: #4a76a8;}
    .vk-text {fill: #ffffff; font-family: Arial, sans-serif; font-weight: bold;}
    .parser-text {fill: #aaaaaa; font-family: Arial, sans-serif;}
  </style>
  
  <!-- Background shape -->
  <rect width="200" height="80" rx="10" fill="#222222"/>
  
  <!-- VK logo -->
  <g transform="translate(20, 25) scale(0.08)">
    <path class="vk-blue" d="M545 117.7c3.7-12.5 0-21.7-17.8-21.7h-58.9c-15 0-21.9 7.9-25.6 16.7 0 0-30 73.1-72.4 120.5-13.7 13.7-20 18.1-27.5 18.1-3.7 0-9.4-4.4-9.4-16.9V117.7c0-15-4.2-21.7-16.6-21.7h-92.6c-9.4 0-15 7-15 13.5 0 14.2 21.2 17.5 23.4 57.5v86.8c0 19-3.4 22.5-10.9 22.5-20 0-68.6-73.4-97.4-157.4-5.8-16.3-11.5-22.9-26.6-22.9H38.8c-16.8 0-20.2 7.9-20.2 16.7 0 15.6 20 93.1 93.1 195.5C160.4 378.1 229 416 291.5 416c37.5 0 42.1-8.4 42.1-22.9 0-66.8-3.4-73.1 15.4-73.1 8.7 0 23.7 4.4 58.7 38.1 40 40 46.6 57.9 69 57.9h58.9c16.8 0 25.3-8.4 20.4-25-11.2-34.9-86.9-106.7-90.3-111.5-8.7-11.2-6.2-16.2 0-26.2.1-.1 72-101.3 79.4-135.6z"/>
  </g>
  
  <!-- Text -->
  <text x="70" y="40" class="vk-text" font-size="26">VK Post</text>
  <text x="70" y="60" class="parser-text" font-size="20">Parser</text>
  
  <!-- Decorative elements -->
  <g transform="translate(160, 28)">
    <rect x="0" y="0" width="4" height="30" rx="2" fill="#4a76a8"/>
    <rect x="8" y="5" width="4" height="20" rx="2" fill="#4a76a8"/>
    <rect x="16" y="10" width="4" height="10" rx="2" fill="#4a76a8"/>
  </g>
</svg>
